Coordinates
version=1
nRows=17
nColumns=40
inDegrees=yes

Units are S.I. units (second, meters, Newtons, ...)
Angles are in degrees.

endheader
time	pelvis_tilt	pelvis_list	pelvis_rotation	pelvis_tx	pelvis_ty	pelvis_tz	hip_flexion_r	hip_adduction_r	hip_rotation_r	knee_angle_r	knee_angle_r_beta	ankle_angle_r	subtalar_angle_r	mtp_angle_r	hip_flexion_l	hip_adduction_l	hip_rotation_l	knee_angle_l	knee_angle_l_beta	ankle_angle_l	subtalar_angle_l	mtp_angle_l	lumbar_extension	lumbar_bending	lumbar_rotation	arm_flex_r	arm_add_r	arm_rot_r	elbow_flex_r	pro_sup_r	wrist_flex_r	wrist_dev_r	arm_flex_l	arm_add_l	arm_rot_l	elbow_flex_l	pro_sup_l	wrist_flex_l	wrist_dev_l
     30.65250000	     -7.34149557	     -3.83634967	      1.42747539	      0.70384230	      0.93132873	      0.50119722	     14.88514555	      2.17522937	    -15.48016327	     16.81615680	     16.81615680	      9.98432965	      1.29309576	     -0.96393217	     32.18780494	    -10.82506441	     -0.07992306	     49.32204545	     49.32204545	     11.56003999	    -18.37320485	     13.26843787	    -10.61704422	      5.35855748	      1.58014852	     20.29718147	    -20.84461279	     -4.46241018	     69.42073092	     44.98094394	      0.00000000	      0.00000000	      0.13541547	     -8.11109864	     -6.19330374	     32.53766858	     46.61776000	      0.00000000	      0.00000000
     30.66557143	     -7.45432724	     -3.83911487	      1.56140991	      0.70228114	      0.93112352	      0.50105418	     14.42678579	      2.23251478	    -15.54103994	     16.40713296	     16.40713296	     10.24522219	      1.38219200	     -1.04936029	     32.64124821	    -10.64786857	     -0.23190047	     46.22520049	     46.22520049	     11.57029097	    -18.14176082	     13.40917627	    -10.58386030	      5.36832745	      1.74577597	     22.23024815	    -20.98235669	     -4.45589027	     70.34125316	     44.96439274	      0.00000000	      0.00000000	     -0.63693037	     -8.02387326	     -6.01661541	     31.44521837	     46.57383601	      0.00000000	      0.00000000
     30.67864286	     -7.64455738	     -3.87421636	      1.69216443	      0.70066452	      0.93052212	      0.50073686	     14.08039265	      2.30807982	    -15.55379577	     16.05217182	     16.05217182	     10.56584678	      1.44235118	     -1.15650778	     33.14417141	    -10.44130692	     -0.29779683	     43.09442532	     43.09442532	     11.61307860	    -17.68064178	     13.58554914	    -10.47027490	      5.43289591	      2.05126575	     24.10354363	    -21.27310092	     -4.57599802	     71.21229980	     44.95120348	      0.00000000	      0.00000000	     -1.43895438	     -7.86492463	     -5.87395152	     30.73528245	     46.53631075	      0.00000000	      0.00000000
     30.69171429	     -7.63782021	     -3.92736295	      1.87175762	      0.69929848	      0.93009612	      0.50028381	     13.41558969	      2.41967940	    -15.63408697	     15.53432081	     15.53432081	     10.90153724	      1.62360702	     -1.28975973	     33.28009017	    -10.16255184	     -0.20559941	     39.77288200	     39.77288200	     11.50102481	    -17.21558658	     13.53183788	    -10.55266722	      5.54397364	      1.92808812	     26.01787025	    -21.02957489	     -4.42913122	     72.39922960	     44.92037470	      0.00000000	      0.00000000	     -2.28857924	     -7.91201369	     -5.59817043	     29.68118650	     46.47689840	      0.00000000	      0.00000000
     30.70478571	     -7.71866267	     -4.05864277	      2.04748002	      0.69790304	      0.92924959	      0.49972556	     12.89609245	      2.59184918	    -15.73561414	     15.10964642	     15.10964642	     11.25979425	      1.78906035	     -1.51208166	     33.52846011	     -9.95014368	     -0.05912503	     36.58678162	     36.58678162	     11.40384729	    -16.43230890	     13.21020104	    -10.52719242	      5.73451154	      1.90437379	     27.89347696	    -20.97439600	     -4.24667002	     73.48357144	     44.89332902	      0.00000000	      0.00000000	     -3.09835428	     -7.86089156	     -5.24504500	     28.80655141	     46.40419661	      0.00000000	      0.00000000
     30.71785714	     -7.77813603	     -4.23225241	      2.21464526	      0.69663780	      0.92816434	      0.49908240	     12.35479770	      2.80359726	    -15.87008954	     14.69330865	     14.69330865	     11.49235780	      1.94560198	     -2.28422713	     33.65595923	     -9.80126910	      0.01519782	     33.34771704	     33.34771704	     10.41391684	    -15.70789552	     10.64117002	    -10.46396929	      5.97689155	      1.92257357	     29.83858616	    -21.16215139	     -3.28336181	     74.44189326	     44.87752976	      0.00000000	      0.00000000	     -3.89529300	     -7.98453931	     -3.70516652	     27.89739768	     46.12504600	      0.00000000	      0.00000000
     30.73092857	     -7.82365540	     -4.36640392	      2.38214235	      0.69548806	      0.92709995	      0.49837776	     11.84958367	      2.97647726	    -15.83853053	     14.40052835	     14.40052835	     11.96985342	      1.89931835	     -2.45333453	     33.82066453	     -9.59941970	      0.10972465	     30.48670503	     30.48670503	     10.53883947	    -14.53204909	     10.89984521	    -10.41629664	      6.13332257	      2.03520387	     31.34303458	    -21.02300241	     -3.47071903	     75.44334253	     44.86235645	      0.00000000	      0.00000000	     -4.70381013	     -7.93562227	     -3.52482712	     27.63363876	     46.08065456	      0.00000000	      0.00000000
     30.74400000	     -7.93317680	     -4.65169256	      2.55933347	      0.69435789	      0.92575147	      0.49756284	     11.49702303	      3.27265912	    -15.89584522	     14.26075070	     14.26075070	     12.44589944	      1.83875017	     -2.65816134	     34.17160497	     -9.52507391	      0.30209246	     28.02946876	     28.02946876	     10.63208884	    -13.39709198	     11.14284464	    -10.26955463	      6.46673659	      2.28548399	     32.82343398	    -21.06904964	     -3.63333430	     76.29096821	     44.84889908	      0.00000000	      0.00000000	     -5.41283430	     -7.84423935	     -3.41107915	     27.40686023	     46.04919357	      0.00000000	      0.00000000
     30.75707143	     -7.79021054	     -4.80492392	      2.73373607	      0.69374522	      0.92487262	      0.49678116	     10.68634728	      3.50637513	    -15.80891786	     13.82124313	     13.82124313	     12.82840788	      1.78938270	     -2.95331244	     34.10586079	     -9.42585755	      0.10149466	     25.70607971	     25.70607971	     10.67179894	    -11.97834314	     11.03076861	    -10.41565979	      6.62854459	      1.93612148	     34.27045272	    -20.32724024	     -3.46503468	     78.06857277	     44.80402054	      0.00000000	      0.00000000	     -6.50412720	     -7.92653390	     -2.85789991	     27.38798793	     45.93431976	      0.00000000	      0.00000000
     30.77014286	     -7.75882847	     -4.96398883	      2.87091390	      0.69316090	      0.92384006	      0.49591015	     10.17331397	      3.68053829	    -15.72964673	     13.73344712	     13.73344712	     13.29589950	      1.64811603	     -3.19757550	     34.15328773	     -9.30104044	     -0.06796294	     23.68686407	     23.68686407	     10.59301244	    -10.93989705	     11.21844743	    -10.37849671	      6.72865874	      2.05222836	     35.43773399	    -20.10914132	     -3.46566974	     79.05808336	     44.78276295	      0.00000000	      0.00000000	     -7.23973914	     -7.93201504	     -2.60097995	     27.30911920	     45.87790764	      0.00000000	      0.00000000
     30.78321429	     -7.68832953	     -5.14952450	      3.00024627	      0.69285295	      0.92287999	      0.49496803	      9.59245609	      3.89349628	    -15.63091009	     13.61605231	     13.61605231	     13.74077983	      1.46752054	     -3.41185039	     34.17056171	     -9.23119641	     -0.36070511	     22.06851654	     22.06851654	     10.44681344	    -10.02027430	     11.29941144	    -10.37957338	      6.86017289	      1.99117238	     36.49077195	    -19.66757553	     -3.39914057	     80.33607376	     44.75102447	      0.00000000	      0.00000000	     -8.07073493	     -7.96763638	     -2.28177525	     27.28641389	     45.80928022	      0.00000000	      0.00000000
     30.79628571	     -7.62298709	     -5.32846349	      3.15314779	      0.69278010	      0.92197255	      0.49396420	      9.03136798	      4.08726458	    -15.52907790	     13.55563043	     13.55563043	     14.15356077	      1.26401594	     -3.57070833	     34.19717525	     -9.15943422	     -0.73538091	     20.82547837	     20.82547837	     10.13544894	     -9.28964027	     11.32187956	    -10.31228462	      6.94828777	      1.96182910	     37.35162159	    -19.25036064	     -3.33759838	     81.57003467	     44.72063211	      0.00000000	      0.00000000	     -8.77754005	     -7.95579434	     -1.97260842	     27.37028459	     45.74465108	      0.00000000	      0.00000000
     30.80935714	     -7.55565173	     -5.51083994	      3.26865743	      0.69301794	      0.92104857	      0.49287163	      8.44280574	      4.29344928	    -15.32540147	     13.47594073	     13.47594073	     14.58136583	      0.97563301	     -3.67070509	     34.16858737	     -9.12672109	     -1.20316140	     19.88874616	     19.88874616	      9.37877616	     -8.78198444	     10.28888810	    -10.27461351	      7.03020529	      2.17950128	     37.68469769	    -19.14436915	     -3.39263034	     83.58766823	     44.70472712	      0.00000000	      0.00000000	     -9.70335389	     -8.20726593	     -0.58605780	     28.46199929	     45.51078681	      0.00000000	      0.00000000
     30.82242857	     -7.51090643	     -5.62673098	      3.36557579	      0.69348871	      0.92023578	      0.49171146	      7.89288865	      4.39064594	    -15.26444399	     13.47648342	     13.47648342	     15.00859810	      0.90200472	     -3.75351267	     34.09804396	     -9.02962823	     -1.64552448	     19.27001141	     19.27001141	      8.87829385	     -8.48325580	     10.45722843	    -10.10372537	      7.01293685	      2.17444814	     38.29703573	    -18.67031299	     -3.35904846	     84.34703033	     44.68579469	      0.00000000	      0.00000000	    -10.21774104	     -8.19577583	     -0.44615869	     28.22697643	     45.48322839	      0.00000000	      0.00000000
     30.83550000	     -7.48738423	     -5.76591669	      3.50876958	      0.69425470	      0.91928851	      0.49039114	      7.35809289	      4.49581904	    -15.29287178	     13.50254281	     13.50254281	     15.46229277	      0.81148987	     -3.87643262	     34.17948960	     -8.94384138	     -1.90046782	     19.24639015	     19.24639015	      8.36706721	     -8.42298244	     10.62702163	     -9.78983953	      6.97252949	      2.36764957	     38.46305000	    -18.52399040	     -3.32561273	     84.54214470	     44.67959745	      0.00000000	      0.00000000	    -10.47552770	     -8.20648110	     -0.43879090	     28.13855205	     45.47813836	      0.00000000	      0.00000000
     30.84857143	     -7.31333266	     -5.81440505	      3.53980090	      0.69551038	      0.91868799	      0.48911618	      6.52609533	      4.56399830	    -15.07096562	     13.34738875	     13.34738875	     16.08800128	      0.83884043	     -3.15417211	     33.71031221	     -8.92133124	     -2.64280919	     18.89549618	     18.89549618	      6.96310656	     -8.10188996	      8.53232265	     -9.87982991	      6.86258615	      2.10612943	     38.30691633	    -17.75389756	     -3.30756484	     87.69625424	     44.61089744	      0.00000000	      0.00000000	    -11.30071198	     -8.30247970	     -0.00413091	     28.55237915	     45.41421478	      0.00000000	      0.00000000
     30.86164286	     -7.33374675	     -5.88290831	      3.63806315	      0.69670200	      0.91774322	      0.48758483	      6.00004711	      4.58121794	    -15.07148323	     13.35588208	     13.35588208	     16.51270387	      0.77137649	     -3.25786050	     33.61059731	     -8.81807489	     -2.84472127	     19.08576052	     19.08576052	      6.28952163	     -8.05416316	      8.71468908	     -9.51119801	      6.77503127	      2.29403589	     38.36924477	    -17.58882152	     -3.25368695	     87.83884645	     44.60546119	      0.00000000	      0.00000000	    -11.50327498	     -8.30814875	     -0.00005375	     28.47671297	     45.41077408	      0.00000000	      0.00000000
